<svg xmlns="http://www.w3.org/2000/svg" viewBox="0 0 256 256" fill="currentColor">
  <!-- Ötzi icon — segmented Ö (thinner 14px verticals, hex horizontals) -->
  <g>
    <polygon points="96,78 104,72 152,72 160,78 152,84 104,84"/>
    <polygon points="90,84 97,91 97,147 90,154 83,147 83,91"/>
    <polygon points="166,84 173,91 173,147 166,154 159,147 159,91"/>
    <polygon points="96,178 104,172 152,172 160,178 152,184 104,184"/>
    <polygon points="96,155 104,163 96,171 88,163"/>
    <polygon points="160,155 168,163 160,171 152,163"/>
  </g>
  <g opacity="0.9">
    <rect x="108" y="48" width="16" height="12"/>
    <rect x="132" y="48" width="16" height="12"/>
  </g>
</svg>
